<?xml version="1.0" encoding="utf-8"?>
<!-- Generator: Adobe Illustrator 17.0.0, SVG Export Plug-In . SVG Version: 6.00 Build 0)  -->
<!DOCTYPE svg PUBLIC "-//W3C//DTD SVG 1.1//EN" "http://www.w3.org/Graphics/SVG/1.1/DTD/svg11.dtd">
<svg version="1.1" xmlns="http://www.w3.org/2000/svg" xmlns:xlink="http://www.w3.org/1999/xlink" x="0px" y="0px" width="325px"
	 height="110px" viewBox="0 0 325 110" enable-background="new 0 0 325 110" xml:space="preserve">
<g id="Capa_2" display="none">
	<rect x="-48.5" y="-64" display="inline" fill="#0A0500" width="422" height="238"/>
</g>
<g id="Capa_1">
	<g>
		<g>
			<path fill="#FD9816" stroke="#F4F3F2" stroke-width="11" stroke-miterlimit="10" d="M5.953,94.79V18.47
				c0-1.519,0.639-2.839,1.92-3.96c1.279-1.119,2.959-1.68,5.04-1.68h24.84c8.56,0,15.42,2.22,20.58,6.66
				c5.16,4.44,7.74,11.421,7.74,20.94v0.6c0,9.521-2.7,16.542-8.1,21.06c-5.4,4.521-12.54,6.779-21.42,6.779h-11.88V94.79
				c0,1.841-0.921,3.261-2.76,4.26c-1.841,1.001-4.041,1.5-6.6,1.5c-2.561,0-4.76-0.499-6.6-1.5
				C6.872,98.051,5.953,96.631,5.953,94.79z M24.674,54.47h11.88c7.2,0,10.8-4,10.8-12v-1.32c0-7.999-3.6-12-10.8-12h-11.88V54.47z"
				/>
			<path fill="#FD9816" stroke="#F4F3F2" stroke-width="11" stroke-miterlimit="10" d="M75.432,29.938
				c-1.92-1.635-2.88-3.557-2.88-5.764c0-2.207,0.96-4.11,2.88-5.708c1.92-1.597,4.239-2.396,6.96-2.396
				c2.64,0,4.92,0.799,6.84,2.396c1.92,1.598,2.88,3.501,2.88,5.708c0,2.207-0.96,4.129-2.88,5.764
				c-1.92,1.635-4.2,2.452-6.84,2.452C79.671,32.39,77.352,31.572,75.432,29.938z M73.152,94.79V49.07c0-1.68,0.859-3.04,2.58-4.08
				c1.719-1.039,3.939-1.56,6.66-1.56c2.64,0,4.86,0.521,6.66,1.56c1.8,1.041,2.7,2.4,2.7,4.08v45.72c0,1.439-0.92,2.76-2.76,3.96
				c-1.841,1.2-4.041,1.8-6.6,1.8c-2.64,0-4.841-0.579-6.6-1.74C74.031,97.651,73.152,96.311,73.152,94.79z"/>
			<path fill="#FD9816" stroke="#F4F3F2" stroke-width="11" stroke-miterlimit="10" d="M102.43,94.79V49.07
				c0-1.68,0.859-3.04,2.58-4.08c1.719-1.039,3.939-1.56,6.66-1.56c2.239,0,4.159,0.525,5.76,1.573c1.6,1.048,2.4,2.419,2.4,4.112
				v2.783c1.279-2.578,3.339-4.753,6.18-6.527c2.839-1.774,6.139-2.661,9.9-2.661c5.52,0,10.299,2.48,14.34,7.44
				c4.039,4.961,6.061,10.88,6.061,17.759V94.79c0,1.841-0.922,3.261-2.762,4.26c-1.84,1.001-4.039,1.5-6.6,1.5
				c-2.399,0-4.541-0.518-6.419-1.555c-1.881-1.036-2.82-2.434-2.82-4.188V68.003c0-2.311-0.861-4.385-2.58-6.221
				c-1.721-1.833-3.741-2.752-6.06-2.752c-2.081,0-3.941,0.817-5.58,2.453c-1.641,1.635-2.46,3.81-2.46,6.521v26.804
				c0,1.437-0.941,2.753-2.82,3.949c-1.881,1.196-4.062,1.794-6.54,1.794c-2.64,0-4.841-0.579-6.6-1.74
				C103.309,97.651,102.43,96.311,102.43,94.79z"/>
			<path fill="#FD9816" stroke="#F4F3F2" stroke-width="11" stroke-miterlimit="10" d="M166.629,94.858V37.929
				c0-8.719,3.28-15.563,9.84-20.529c6.559-4.965,14.599-7.45,24.12-7.45c4.959,0,9.979,0.675,15.06,2.025
				c5.079,1.35,8.82,3.248,11.22,5.693V94.76c0,1.447-0.941,2.775-2.819,3.98c-1.881,1.208-4.101,1.81-6.66,1.81
				c-2.562,0-4.722-0.579-6.48-1.74c-1.761-1.158-2.64-2.499-2.64-4.02V27.95c-2.001-1.119-4.842-1.68-8.521-1.68
				c-3.92,0-7.319,0.98-10.199,2.94c-2.881,1.961-4.32,4.781-4.32,8.46v5.76h11.04c1.439,0,2.56,0.72,3.359,2.16
				c0.799,1.44,1.2,3.12,1.2,5.04c0,2.008-0.401,3.71-1.2,5.105c-0.8,1.397-1.92,2.094-3.359,2.094h-11.04v37.234
				c0,1.557-0.941,2.861-2.82,3.911c-1.881,1.05-4.101,1.575-6.66,1.575c-2.64,0-4.82-0.525-6.54-1.575
				C167.489,97.925,166.629,96.553,166.629,94.858z"/>
			<path fill="#FD9816" stroke="#F4F3F2" stroke-width="11" stroke-miterlimit="10" d="M236.589,76.31v-8.4
				c0-6.798,2.679-12.699,8.04-17.699c5.358-4.999,11.76-7.5,19.2-7.5c7.359,0,13.758,2.48,19.199,7.44
				c5.439,4.961,8.16,10.88,8.16,17.759v8.4c0,6.72-2.741,12.642-8.22,17.76c-5.48,5.121-11.861,7.681-19.14,7.681
				c-7.281,0-13.641-2.56-19.08-7.681C239.307,88.951,236.589,83.029,236.589,76.31z M255.188,76.273c0,2.379,0.84,4.5,2.521,6.363
				c1.68,1.864,3.72,2.794,6.12,2.794c2.399,0,4.458-0.93,6.18-2.794c1.719-1.863,2.58-3.984,2.58-6.363v-8.323
				c0-2.299-0.882-4.361-2.641-6.184c-1.76-1.823-3.8-2.736-6.119-2.736c-2.321,0-4.341,0.913-6.061,2.736
				c-1.721,1.822-2.58,3.885-2.58,6.184V76.273z"/>
			<path fill="#FD9816" stroke="#F4F3F2" stroke-width="11" stroke-miterlimit="10" d="M302.106,29.938
				c-1.92-1.635-2.88-3.557-2.88-5.764c0-2.207,0.96-4.11,2.88-5.708c1.92-1.597,4.239-2.396,6.96-2.396
				c2.641,0,4.92,0.799,6.841,2.396c1.92,1.598,2.88,3.501,2.88,5.708c0,2.207-0.96,4.129-2.88,5.764
				c-1.921,1.635-4.2,2.452-6.841,2.452C306.346,32.39,304.026,31.572,302.106,29.938z M299.827,94.79V49.07
				c0-1.68,0.858-3.04,2.58-4.08c1.719-1.039,3.938-1.56,6.659-1.56c2.641,0,4.86,0.521,6.66,1.56c1.8,1.041,2.7,2.4,2.7,4.08v45.72
				c0,1.439-0.921,2.76-2.76,3.96c-1.842,1.2-4.041,1.8-6.601,1.8c-2.64,0-4.841-0.579-6.6-1.74
				C300.706,97.651,299.827,96.311,299.827,94.79z"/>
		</g>
		<path fill="#FD9816" stroke="#FD9816" stroke-width="2" stroke-miterlimit="10" d="M6.213,95.39V19.07
			c0-1.519,0.639-2.839,1.92-3.96c1.279-1.119,2.959-1.68,5.04-1.68h24.84c8.56,0,15.42,2.22,20.58,6.66
			c5.16,4.44,7.74,11.421,7.74,20.94v0.6c0,9.521-2.7,16.542-8.1,21.06c-5.4,4.521-12.54,6.779-21.42,6.779h-11.88V95.39
			c0,1.841-0.921,3.261-2.76,4.26c-1.841,1.001-4.041,1.5-6.6,1.5c-2.561,0-4.76-0.499-6.6-1.5
			C7.132,98.651,6.213,97.231,6.213,95.39z M24.933,55.07h11.88c7.2,0,10.8-4,10.8-12v-1.32c0-7.999-3.6-12-10.8-12h-11.88V55.07z"
			/>
		<path fill="#FD9816" stroke="#FD9816" stroke-width="2" stroke-miterlimit="10" d="M75.692,30.538
			c-1.92-1.635-2.88-3.557-2.88-5.764c0-2.207,0.96-4.11,2.88-5.708c1.92-1.597,4.239-2.396,6.96-2.396
			c2.64,0,4.92,0.799,6.84,2.396c1.92,1.598,2.88,3.501,2.88,5.708c0,2.207-0.96,4.129-2.88,5.764c-1.92,1.635-4.2,2.452-6.84,2.452
			C79.931,32.99,77.611,32.172,75.692,30.538z M73.411,95.39V49.67c0-1.68,0.859-3.04,2.58-4.08c1.719-1.039,3.939-1.56,6.66-1.56
			c2.64,0,4.86,0.521,6.66,1.56c1.8,1.041,2.7,2.4,2.7,4.08v45.72c0,1.439-0.92,2.76-2.76,3.96c-1.841,1.2-4.041,1.8-6.6,1.8
			c-2.64,0-4.841-0.579-6.6-1.74C74.291,98.252,73.411,96.911,73.411,95.39z"/>
		<path fill="#FD9816" stroke="#FD9816" stroke-width="2" stroke-miterlimit="10" d="M102.69,95.39V49.67
			c0-1.68,0.859-3.04,2.58-4.08c1.719-1.039,3.939-1.56,6.66-1.56c2.239,0,4.159,0.525,5.76,1.573c1.6,1.048,2.4,2.419,2.4,4.112
			v2.783c1.279-2.578,3.339-4.753,6.18-6.527c2.839-1.774,6.139-2.661,9.9-2.661c5.52,0,10.299,2.48,14.34,7.44
			c4.039,4.961,6.061,10.88,6.061,17.759V95.39c0,1.841-0.922,3.261-2.762,4.26c-1.84,1.001-4.039,1.5-6.6,1.5
			c-2.399,0-4.541-0.518-6.419-1.555c-1.881-1.036-2.82-2.434-2.82-4.188V68.603c0-2.311-0.861-4.385-2.58-6.221
			c-1.721-1.833-3.741-2.752-6.06-2.752c-2.081,0-3.941,0.817-5.58,2.453c-1.641,1.635-2.46,3.81-2.46,6.521v26.804
			c0,1.437-0.941,2.753-2.82,3.949c-1.881,1.196-4.062,1.794-6.54,1.794c-2.64,0-4.841-0.579-6.6-1.74
			C103.569,98.252,102.69,96.911,102.69,95.39z"/>
		<path fill="#FD9816" stroke="#FD9816" stroke-width="2" stroke-miterlimit="10" d="M166.889,95.458V38.529
			c0-8.719,3.28-15.563,9.84-20.529c6.559-4.965,14.599-7.45,24.12-7.45c4.959,0,9.979,0.675,15.06,2.025
			c5.079,1.35,8.82,3.248,11.22,5.693V95.36c0,1.447-0.941,2.775-2.819,3.98c-1.881,1.208-4.101,1.81-6.66,1.81
			c-2.562,0-4.722-0.579-6.48-1.74c-1.761-1.158-2.64-2.499-2.64-4.02V28.55c-2.001-1.119-4.842-1.68-8.521-1.68
			c-3.92,0-7.319,0.98-10.199,2.94c-2.881,1.961-4.32,4.781-4.32,8.46v5.76h11.04c1.439,0,2.56,0.72,3.359,2.16
			c0.799,1.44,1.2,3.12,1.2,5.04c0,2.008-0.401,3.71-1.2,5.105c-0.8,1.397-1.92,2.094-3.359,2.094h-11.04v37.234
			c0,1.557-0.941,2.861-2.82,3.911c-1.881,1.05-4.101,1.575-6.66,1.575c-2.64,0-4.82-0.525-6.54-1.575
			C167.748,98.525,166.889,97.153,166.889,95.458z"/>
		<path fill="#FD9816" stroke="#FD9816" stroke-width="2" stroke-miterlimit="10" d="M236.848,76.91v-8.4
			c0-6.798,2.679-12.699,8.04-17.699c5.358-4.999,11.76-7.5,19.2-7.5c7.359,0,13.758,2.48,19.199,7.44
			c5.439,4.961,8.16,10.88,8.16,17.759v8.4c0,6.72-2.741,12.642-8.22,17.76c-5.48,5.121-11.861,7.681-19.14,7.681
			c-7.281,0-13.641-2.56-19.08-7.681C239.567,89.551,236.848,83.63,236.848,76.91z M255.448,76.873c0,2.379,0.84,4.5,2.521,6.363
			c1.68,1.864,3.72,2.794,6.12,2.794c2.399,0,4.458-0.93,6.18-2.794c1.719-1.863,2.58-3.984,2.58-6.363v-8.323
			c0-2.299-0.882-4.361-2.641-6.184c-1.76-1.823-3.8-2.736-6.119-2.736c-2.321,0-4.341,0.913-6.061,2.736
			c-1.721,1.822-2.58,3.885-2.58,6.184V76.873z"/>
		<path fill="#FD9816" stroke="#FD9816" stroke-width="2" stroke-miterlimit="10" d="M302.366,30.538
			c-1.92-1.635-2.88-3.557-2.88-5.764c0-2.207,0.96-4.11,2.88-5.708c1.92-1.597,4.239-2.396,6.96-2.396
			c2.641,0,4.92,0.799,6.841,2.396c1.92,1.598,2.88,3.501,2.88,5.708c0,2.207-0.96,4.129-2.88,5.764
			c-1.921,1.635-4.2,2.452-6.841,2.452C306.605,32.99,304.286,32.172,302.366,30.538z M300.087,95.39V49.67
			c0-1.68,0.858-3.04,2.58-4.08c1.719-1.039,3.938-1.56,6.659-1.56c2.641,0,4.86,0.521,6.66,1.56c1.8,1.041,2.7,2.4,2.7,4.08v45.72
			c0,1.439-0.921,2.76-2.76,3.96c-1.842,1.2-4.041,1.8-6.601,1.8c-2.64,0-4.841-0.579-6.6-1.74
			C300.965,98.252,300.087,96.911,300.087,95.39z"/>
	</g>
</g>
</svg>
